<?xml version="1.0" encoding="UTF-8" standalone="no"?>
<svg width="353px" height="285px" viewBox="0 0 353 285" version="1.1" xmlns="http://www.w3.org/2000/svg" xmlns:xlink="http://www.w3.org/1999/xlink" xmlns:sketch="http://www.bohemiancoding.com/sketch/ns">
    <!-- Generator: Sketch 3.0.4 (8054) - http://www.bohemiancoding.com/sketch -->
    <title>icon</title>
    <desc>Created with Sketch.</desc>
    <defs></defs>
    <g id="Page-1" stroke="none" stroke-width="1" fill="none" fill-rule="evenodd" sketch:type="MSPage">
        <g id="SplashScreen" sketch:type="MSArtboardGroup" transform="translate(-147.000000, -428.000000)">
            <g id="icon" sketch:type="MSLayerGroup" transform="translate(148.000000, 428.000000)">
                <path d="M74.6730341,41.2125813 L74.6730341,247.806777 L263.609789,247.806777 L263.609789,41.2125813 L74.6730341,41.2125813 Z" id="right-side" fill="#F1882B" sketch:type="MSShapeGroup" transform="translate(168.947087, 144.344254) rotate(10.000000) translate(-168.947087, -144.344254) "></path>
                <rect id="left-side" fill="#F1882B" sketch:type="MSShapeGroup" transform="translate(111.227470, 144.050006) rotate(-10.000000) translate(-111.227470, -144.050006) " x="16.7590926" y="40.7529084" width="188.936754" height="206.594196"></rect>
                <path d="M140.16296,280.095193 C197.632609,280.095193 244.220964,271.374505 244.220964,260.616991 C244.220964,249.859478 197.632609,241.13879 140.16296,241.13879 C82.6933116,241.13879 36.1049563,249.859478 36.1049563,260.616991 C36.1049563,271.374505 82.6933116,280.095193 140.16296,280.095193 Z" id="bottom" fill="#F1882B" sketch:type="MSShapeGroup"></path>
                <ellipse id="top" fill="#F1882B" sketch:type="MSShapeGroup" cx="140.052914" cy="58.2963819" rx="140.22933" ry="15.3411531"></ellipse>
                <path d="M30.3392072,62.4852364 C30.3392072,62.4852364 47.2562565,69.2999829 85.3678442,71.6419872 C85.5948714,71.6559383 118.533968,74.1048626 138.374626,73.9461564 C165.738613,73.7272709 182.009307,72.8115503 208.793847,69.2429344 C245.473532,64.3559471 247.429716,61.3306548 247.429716,61.3306548 C247.429716,61.3306548 229.461329,27.7723038 206.425326,16.2799994 C183.389323,4.78769497 172.517395,-0.190495923 136.524327,0.357560732 C100.531259,0.905617387 94.4831141,1.60864323 63.7698785,18.3634408 C33.056643,35.1182384 30.3392072,62.4852364 30.3392072,62.4852364 Z" id="sugar" fill="#FFFFFF" sketch:type="MSShapeGroup"></path>
                <path d="M283.473643,79.1224273 C275.037118,77.9017868 267.220395,79.4542423 260.6172,83.7239932 C247.411812,92.263495 240.567917,109.139224 239.76057,129.449687 C238.118798,170.723281 268.47404,196.78321 296.187602,197.030328 C322.81601,197.267481 343.043812,178.913032 343.043812,178.913032 L333.615404,167.840577 C333.615404,167.840577 315.84976,182.538086 296.187602,182.364705 C277.611602,182.198299 253.127427,164.018228 254.474343,130.168121 C255.160337,112.915737 261.074529,100.874741 268.47404,96.0898295 C275.87355,91.3049184 286.15243,91.3617156 301.044722,102.847694 C317.163579,115.279296 321.629561,121.118442 321.473107,120.821502 C321.551334,121.932534 321.352757,122.80741 321.901352,123.841716 C322.922319,125.764847 324.078681,126.562997 325.043486,127.292392 L333.757818,115.501502 C333.56927,115.359011 334.019579,115.548335 334.757725,116.939367 C334.641386,115.558299 334.929223,115.057089 334.330483,113.92015 C331.521317,108.595168 326.46562,103.975666 309.901468,91.2012886 C301.007614,84.3407903 291.911171,80.3440644 283.474646,79.1224273 L283.473643,79.1224273" id="handle" stroke="#F1882B" stroke-width="7" fill="#F1882B" sketch:type="MSShapeGroup" transform="translate(291.848397, 138.505338) scale(-1, 1) translate(-291.848397, -138.505338) "></path>
            </g>
        </g>
    </g>
</svg>